<?xml version="1.0" encoding="UTF-8"?>
<svg xmlns="http://www.w3.org/2000/svg" xmlns:xlink="http://www.w3.org/1999/xlink" viewBox="0 0 100 100" width="100px" height="100px">
<g id="surface34361792">
<path style=" stroke:none;fill-rule:nonzero;fill:rgb(100%,100%,100%);fill-opacity:1;" d="M 48.53125 6.773438 C 46.863281 6.773438 45.242188 6.878906 43.707031 7.085938 C 41.695312 7.386719 39.644531 8.316406 37.472656 9.300781 C 35.101562 10.375 32.652344 11.488281 30.484375 11.632812 C 30.355469 11.644531 30.230469 11.664062 30.109375 11.695312 C 26.796875 12.570312 24.003906 14.667969 22.238281 17.597656 C 22.203125 17.652344 22.171875 17.707031 22.144531 17.765625 C 20.628906 20.925781 20.222656 24.546875 21 27.960938 C 21.011719 28.015625 21.023438 28.066406 21.039062 28.117188 C 21.613281 29.945312 22.289062 31.71875 22.945312 33.433594 C 24.253906 36.871094 25.496094 40.117188 25.964844 43.773438 C 25.996094 44.035156 26.082031 44.285156 26.210938 44.511719 C 26.722656 45.40625 27.117188 46.777344 27.539062 48.230469 C 28.378906 51.140625 29.417969 54.738281 32.164062 57.636719 L 32.21875 59.957031 L 32.21875 59.988281 C 32.21875 61.09375 33.113281 61.988281 34.21875 61.988281 L 34.277344 61.988281 C 34.625 61.988281 34.96875 61.898438 35.269531 61.726562 C 38.53125 59.859375 42.074219 58.699219 45.800781 58.277344 C 46.417969 58.21875 47.085938 58.191406 47.746094 58.191406 C 53.003906 58.191406 58.328125 60.046875 63.574219 63.707031 C 63.910156 63.941406 64.308594 64.070312 64.71875 64.070312 L 64.777344 64.070312 C 65.855469 64.070312 66.730469 63.214844 66.773438 62.152344 C 66.859375 61.667969 66.925781 61.175781 66.976562 60.671875 C 68.828125 59.53125 69.527344 56.488281 70.636719 51.054688 C 70.785156 50.328125 70.933594 49.59375 71.089844 48.867188 C 72.457031 45.808594 74.484375 42.980469 76.449219 40.246094 C 79.949219 35.367188 83.253906 30.761719 82.894531 25.121094 C 82.875 24.847656 82.800781 24.582031 82.679688 24.339844 C 76.109375 11.429688 67.039062 9.511719 62.164062 8.480469 C 61.566406 8.355469 61.050781 8.246094 60.621094 8.136719 C 60.574219 8.121094 60.53125 8.113281 60.480469 8.105469 C 56.9375 7.445312 52.75 6.773438 48.53125 6.773438 Z M 48.535156 8.773438 C 52.390625 8.773438 56.253906 9.351562 60.117188 10.070312 C 61.605469 10.457031 63.804688 10.769531 66.332031 11.632812 C 66.246094 11.675781 66.171875 11.738281 66.117188 11.824219 C 62.695312 17.550781 60.453125 23.800781 59.453125 30.394531 C 58.578125 36.21875 58.28125 42.144531 58.574219 48.027344 C 58.570312 48.144531 58.5625 48.265625 58.558594 48.386719 C 57.773438 48.109375 56.949219 47.855469 56.078125 47.632812 C 54.875 47.3125 53.644531 47.085938 52.410156 46.929688 C 52.378906 46.707031 52.347656 46.484375 52.316406 46.261719 C 52.261719 45.910156 52.210938 45.558594 52.167969 45.242188 L 52.140625 44.695312 C 51.992188 41.75 51.808594 38.078125 51.9375 36.304688 C 51.984375 35.640625 52.035156 34.769531 52.089844 33.742188 C 52.417969 27.921875 53.027344 17.085938 55.304688 11.003906 C 55.363281 10.851562 55.300781 10.679688 55.207031 10.546875 C 55.019531 10.273438 54.527344 10.273438 54.34375 10.550781 C 47.628906 20.460938 49.535156 34.273438 51.074219 45.4375 C 51.128906 45.792969 51.179688 46.164062 51.234375 46.535156 L 51.273438 46.804688 C 49.3125 46.640625 47.335938 46.683594 45.390625 46.933594 C 44.929688 44.652344 44.53125 42.347656 44.164062 40.058594 L 44.246094 40.058594 L 44.246094 35.605469 C 44.378906 34.503906 44.542969 33.285156 44.742188 31.886719 C 44.78125 31.613281 44.59375 31.355469 44.320312 31.320312 C 44.046875 31.28125 43.792969 31.46875 43.753906 31.742188 C 43.75 31.765625 43.75 31.789062 43.742188 31.8125 L 43.328125 34.703125 C 42.621094 29.738281 41.300781 17.078125 42.882812 11.894531 C 43.070312 11.28125 43.386719 10.980469 44.019531 10.824219 C 44.5 10.707031 44.988281 10.691406 45.476562 10.753906 C 46.589844 13.019531 45.496094 20.214844 44.433594 27.195312 C 44.390625 27.464844 44.582031 27.722656 44.851562 27.761719 C 44.878906 27.765625 44.90625 27.769531 44.929688 27.769531 C 45.171875 27.769531 45.386719 27.589844 45.421875 27.34375 C 46.570312 19.808594 47.652344 12.695312 46.316406 10.195312 C 46.316406 10.191406 46.316406 10.191406 46.316406 10.1875 C 46.316406 9.964844 46.167969 9.765625 45.953125 9.707031 C 45.257812 9.511719 44.542969 9.460938 43.816406 9.554688 C 41.9375 9.832031 40.601562 11.273438 39.84375 13.871094 C 39.15625 16.71875 38.921875 19.644531 39.148438 22.5625 C 39.710938 30.941406 41.410156 39.195312 44.171875 47.121094 C 43.953125 47.160156 43.730469 47.1875 43.511719 47.234375 C 41.960938 47.515625 40.449219 48.074219 39.023438 48.867188 C 36.152344 45.015625 36.023438 39.976562 35.90625 35.089844 C 35.871094 33.523438 35.828125 31.90625 35.699219 30.34375 C 35.703125 30.328125 35.710938 30.320312 35.710938 30.304688 C 35.988281 26.566406 36.058594 20.953125 35.859375 18.753906 C 35.835938 18.480469 35.601562 18.273438 35.316406 18.300781 C 35.042969 18.324219 34.839844 18.570312 34.863281 18.84375 C 34.988281 20.226562 35.003906 22.992188 34.925781 25.773438 C 33.667969 21.125 31.332031 17.695312 30.488281 16.570312 C 30.480469 16.554688 30.46875 16.542969 30.457031 16.53125 C 30.175781 16.210938 30.03125 15.785156 30.054688 15.410156 C 30.078125 15.277344 30.148438 15.164062 30.257812 15.089844 C 30.429688 14.96875 30.632812 14.894531 30.839844 14.878906 C 31.425781 14.824219 32.597656 15.316406 33.195312 15.632812 C 33.441406 15.761719 33.742188 15.664062 33.871094 15.421875 C 34.003906 15.179688 33.90625 14.875 33.664062 14.746094 C 33.480469 14.648438 31.835938 13.789062 30.761719 13.882812 C 30.375 13.910156 30 14.046875 29.683594 14.269531 C 29.359375 14.5 29.132812 14.855469 29.0625 15.296875 C 29.015625 15.988281 29.253906 16.683594 29.6875 17.167969 C 31.8125 20.046875 32.25 24.917969 32.722656 30.164062 C 33.289062 36.667969 33.945312 44 38.09375 49.445312 C 36.988281 50.164062 35.933594 51.007812 34.980469 52 C 32.496094 48.644531 31.769531 43.671875 31.085938 38.832031 C 30.824219 36.945312 30.550781 35 30.171875 33.164062 C 30.082031 32.71875 29.996094 32.289062 29.910156 31.851562 C 29.722656 29.820312 29.414062 27.695312 29.121094 25.695312 C 28.664062 22.582031 28.230469 19.632812 28.445312 18.109375 C 28.550781 17.960938 28.574219 17.765625 28.484375 17.59375 C 28.039062 16.722656 27.511719 16.339844 27.035156 16.191406 C 27.027344 16.179688 27.019531 16.164062 27.007812 16.152344 C 26.898438 16.058594 26.753906 16.011719 26.609375 16.035156 C 26.421875 16.0625 26.242188 16.121094 26.058594 16.179688 C 26.015625 16.191406 25.972656 16.191406 25.929688 16.207031 C 27.25 14.988281 28.851562 14.097656 30.617188 13.632812 C 35.199219 13.320312 40.160156 9.640625 43.976562 9.070312 C 45.496094 8.863281 47.015625 8.773438 48.53125 8.773438 Z M 66.976562 11.863281 C 71.382812 13.507812 76.660156 16.917969 80.898438 25.25 C 81.410156 33.25 72.960938 39.601562 69.179688 48.25 C 68.300781 52.324219 67.605469 56.636719 66.492188 58.347656 C 66.503906 57.128906 66.433594 55.914062 66.265625 54.703125 C 66.089844 52.558594 63.535156 50.355469 59.617188 48.78125 C 59.617188 48.773438 59.617188 48.769531 59.617188 48.761719 C 59.601562 48.519531 59.589844 48.277344 59.578125 48.035156 C 59.761719 45.039062 60.3125 41.882812 60.847656 38.820312 C 61.296875 36.242188 61.761719 33.574219 62.003906 31.058594 C 62.632812 27.71875 63.539062 25.050781 64.417969 22.46875 C 65.492188 19.304688 66.507812 16.3125 67.046875 12.234375 C 67.046875 12.214844 67.050781 12.101562 67.050781 12.078125 C 67.050781 12 67.011719 11.933594 66.976562 11.863281 Z M 41.839844 11.898438 C 40.253906 17.714844 41.726562 30.886719 42.441406 35.550781 C 42.71875 37.367188 43.003906 39.210938 43.308594 41.066406 C 41.628906 35.003906 40.566406 28.785156 40.144531 22.488281 C 39.925781 19.671875 40.152344 16.851562 40.808594 14.132812 C 41.078125 13.214844 41.421875 12.46875 41.839844 11.902344 Z M 53.222656 14.636719 C 51.816406 20.84375 51.359375 28.929688 51.09375 33.691406 C 51.039062 34.667969 50.992188 35.503906 50.949219 36.148438 C 50.269531 28.796875 50.335938 21.097656 53.222656 14.632812 Z M 65.605469 14.789062 C 65.050781 17.496094 64.277344 19.773438 63.472656 22.148438 C 62.582031 24.761719 61.664062 27.464844 61.015625 30.921875 C 60.773438 33.441406 60.308594 36.085938 59.863281 38.648438 C 59.746094 39.3125 59.628906 39.980469 59.515625 40.65625 C 59.628906 37.269531 59.9375 33.890625 60.445312 30.546875 C 61.285156 25.007812 63.015625 19.71875 65.605469 14.789062 Z M 34.589844 15.644531 C 34.464844 15.640625 34.332031 15.679688 34.230469 15.769531 C 34.023438 15.953125 34.003906 16.269531 34.183594 16.476562 C 34.253906 16.554688 34.320312 16.636719 34.386719 16.71875 C 34.484375 16.84375 34.628906 16.910156 34.777344 16.910156 C 34.886719 16.910156 34.996094 16.875 35.089844 16.800781 C 35.308594 16.632812 35.34375 16.320312 35.171875 16.101562 C 35.097656 16.003906 35.019531 15.910156 34.933594 15.8125 C 34.84375 15.710938 34.71875 15.652344 34.589844 15.644531 Z M 26.664062 17.140625 C 26.953125 17.199219 27.230469 17.425781 27.480469 17.839844 C 27.277344 19.023438 27.445312 20.886719 27.742188 23.105469 C 27.363281 22.230469 26.929688 21.523438 26.394531 21.074219 C 26.09375 20.6875 25.679688 20.457031 25.3125 20.25 C 24.597656 19.847656 24.378906 19.726562 24.757812 18.976562 C 25.042969 18.457031 25.375 17.957031 25.742188 17.492188 C 26.019531 17.3125 26.335938 17.195312 26.664062 17.140625 Z M 76.285156 20.421875 C 72.207031 21.277344 65.847656 36.390625 65.746094 48.316406 C 65.746094 48.558594 65.917969 48.765625 66.152344 48.808594 C 66.1875 48.816406 66.21875 48.820312 66.25 48.820312 C 66.453125 48.820312 66.636719 48.699219 66.714844 48.503906 C 70.027344 40.09375 73.785156 30.558594 76.863281 21.066406 C 76.921875 20.894531 76.882812 20.707031 76.761719 20.574219 C 76.640625 20.441406 76.457031 20.382812 76.285156 20.421875 Z M 24.058594 20.609375 C 24.296875 20.828125 24.582031 20.984375 24.824219 21.121094 C 25.144531 21.304688 25.449219 21.476562 25.621094 21.714844 C 25.648438 21.75 25.679688 21.78125 25.714844 21.808594 C 27.144531 22.960938 27.867188 26.660156 28.707031 30.941406 C 28.863281 31.730469 29.023438 32.542969 29.191406 33.367188 C 29.558594 35.171875 29.832031 37.101562 30.097656 38.972656 C 30.289062 40.359375 30.488281 41.757812 30.726562 43.132812 C 29.726562 39.820312 29.007812 36.320312 28.367188 33.183594 C 27.253906 27.730469 26.292969 23.015625 24.355469 21.398438 C 24.203125 21.175781 24.105469 20.925781 24.066406 20.695312 C 24.0625 20.667969 24.0625 20.636719 24.058594 20.609375 Z M 23.101562 20.914062 C 23.179688 21.316406 23.34375 21.707031 23.589844 22.039062 C 23.613281 22.070312 23.644531 22.105469 23.679688 22.132812 C 25.371094 23.480469 26.351562 28.289062 27.390625 33.382812 C 28.71875 39.882812 30.371094 47.914062 34.242188 52.839844 C 33.734375 53.4375 33.25 54.058594 32.808594 54.726562 C 32.753906 54.8125 32.722656 54.910156 32.726562 55.015625 L 32.730469 55.191406 C 29.808594 51.300781 29.53125 46.300781 27.949219 43.519531 C 27.199219 37.691406 24.621094 32.851562 22.949219 27.519531 C 22.453125 25.328125 22.511719 23.058594 23.101562 20.914062 Z M 75.523438 21.945312 C 72.871094 29.96875 69.769531 38 66.894531 45.316406 C 67.789062 34.992188 72.554688 24.46875 75.523438 21.945312 Z M 32.832031 22.746094 C 33.707031 24.832031 34.464844 27.359375 34.683594 30.148438 C 34.828125 31.769531 34.867188 33.46875 34.90625 35.113281 C 34.949219 36.941406 34.992188 38.789062 35.175781 40.597656 C 34.328125 37.128906 34.011719 33.453125 33.707031 29.988281 C 33.480469 27.449219 33.257812 24.980469 32.832031 22.746094 Z M 44.648438 29.113281 C 44.375 29.074219 44.121094 29.261719 44.078125 29.535156 L 43.980469 30.195312 C 43.941406 30.46875 44.128906 30.722656 44.402344 30.761719 C 44.429688 30.765625 44.453125 30.769531 44.476562 30.769531 C 44.71875 30.769531 44.933594 30.585938 44.96875 30.339844 L 45.066406 29.683594 C 45.109375 29.410156 44.921875 29.152344 44.648438 29.113281 Z M 48.253906 47.710938 C 50.804688 47.648438 53.363281 47.945312 55.828125 48.601562 C 61.128906 49.953125 65.097656 52.554688 65.269531 54.792969 C 65.269531 54.804688 65.273438 54.8125 65.273438 54.824219 C 65.585938 57.070312 65.574219 59.339844 65.238281 61.644531 C 59.441406 57.738281 53.546875 55.765625 47.664062 55.765625 C 46.875 55.765625 46.085938 55.804688 45.300781 55.871094 C 41.257812 56.328125 37.40625 57.539062 33.84375 59.472656 L 33.730469 55.144531 C 36.167969 51.503906 39.882812 48.917969 43.699219 48.214844 C 45.195312 47.917969 46.722656 47.75 48.253906 47.710938 Z M 37.527344 62.429688 C 37.132812 62.429688 36.746094 62.546875 36.410156 62.769531 L 35.582031 63.328125 C 34.699219 63.925781 34.4375 65.101562 34.984375 66.011719 C 35.457031 66.808594 36.0625 67.507812 36.785156 68.085938 C 36.847656 68.136719 36.910156 68.183594 36.976562 68.222656 C 37.375 68.472656 37.8125 68.648438 38.261719 68.761719 C 38.246094 68.773438 38.234375 68.789062 38.21875 68.800781 C 37.070312 69.929688 36.574219 71.53125 36.882812 73.101562 C 37.035156 74.304688 37.519531 75.4375 38.285156 76.382812 C 39.128906 77.492188 40.460938 78.148438 41.855469 78.148438 C 42.738281 78.132812 43.578125 77.90625 44.3125 77.488281 C 44.328125 77.480469 44.34375 77.472656 44.359375 77.464844 C 45.398438 76.839844 46.636719 75.519531 46.667969 72.765625 C 46.796875 71.363281 46.335938 69.960938 45.429688 68.894531 C 45.722656 68.878906 46.019531 68.808594 46.292969 68.65625 L 47.082031 68.214844 C 47.714844 67.863281 48.109375 67.195312 48.109375 66.472656 C 48.109375 66.085938 48 65.691406 47.792969 65.367188 C 47.328125 64.652344 46.757812 64.019531 46.089844 63.492188 C 46.058594 63.464844 46.023438 63.441406 45.992188 63.417969 C 45.265625 62.914062 44.421875 62.648438 43.542969 62.648438 L 43.472656 62.648438 C 43.082031 62.648438 42.703125 62.71875 42.339844 62.859375 L 39.523438 63.800781 C 39.425781 63.6875 39.339844 63.566406 39.269531 63.4375 C 38.992188 62.953125 38.527344 62.609375 37.984375 62.480469 C 37.835938 62.445312 37.679688 62.429688 37.53125 62.429688 Z M 68.5 64.417969 C 68.351562 64.417969 68.203125 64.425781 68.054688 64.445312 C 67.316406 64.519531 66.625 64.871094 66.121094 65.417969 C 65.625 65.890625 65.300781 66.503906 65.195312 67.179688 C 65.113281 67.574219 65.136719 67.988281 65.265625 68.375 C 65.355469 68.648438 65.507812 68.902344 65.707031 69.117188 C 66.601562 70.0625 67.738281 70.730469 69 71.058594 C 69.726562 71.28125 70.425781 71.488281 71.085938 71.679688 C 71.011719 71.738281 70.9375 71.796875 70.859375 71.859375 C 70.609375 72.050781 70.328125 72.273438 70 72.519531 C 69.980469 72.535156 69.964844 72.546875 69.945312 72.5625 C 69.433594 72.980469 68.886719 73.351562 68.308594 73.675781 C 67.472656 74.0625 66.726562 74.648438 66.148438 75.371094 L 66.148438 75.375 C 65.640625 75.957031 65.390625 76.699219 65.445312 77.46875 C 65.496094 78.21875 65.832031 78.902344 66.386719 79.40625 C 66.945312 79.925781 67.671875 80.210938 68.433594 80.210938 C 68.449219 80.210938 68.476562 80.210938 68.492188 80.210938 C 68.988281 80.199219 69.488281 80.070312 69.925781 79.839844 C 69.972656 79.816406 70.011719 79.789062 70.054688 79.765625 C 71.410156 78.910156 72.726562 77.960938 73.964844 76.949219 C 75.109375 76.003906 76.300781 75.113281 77.523438 74.296875 C 79.164062 73.277344 79.511719 72.070312 79.511719 71.242188 C 79.511719 71.191406 79.507812 71.144531 79.503906 71.09375 C 79.4375 70.222656 78.992188 69.417969 78.292969 68.902344 C 76.585938 67.386719 74.539062 66.222656 72.359375 65.539062 L 71.066406 64.976562 C 70.398438 64.671875 69.660156 64.488281 68.898438 64.4375 C 68.765625 64.421875 68.632812 64.417969 68.5 64.417969 Z M 37.527344 64.429688 C 37.769531 64.847656 38.074219 65.222656 38.441406 65.539062 C 38.699219 65.722656 39.007812 65.824219 39.328125 65.824219 C 39.363281 65.824219 39.402344 65.824219 39.441406 65.820312 C 39.457031 65.820312 39.476562 65.820312 39.496094 65.820312 C 39.675781 65.820312 39.855469 65.792969 40.027344 65.738281 L 43.027344 64.738281 C 43.167969 64.679688 43.320312 64.648438 43.472656 64.648438 L 43.542969 64.648438 C 44.007812 64.648438 44.464844 64.792969 44.851562 65.058594 C 45.34375 65.453125 45.769531 65.917969 46.109375 66.449219 L 46.109375 66.472656 L 45.320312 66.910156 C 45.070312 66.53125 44.769531 66.195312 44.421875 65.910156 C 44.191406 65.757812 43.921875 65.675781 43.648438 65.675781 C 43.617188 65.675781 43.589844 65.675781 43.558594 65.679688 C 43.359375 65.679688 43.15625 65.714844 42.96875 65.789062 L 40.199219 66.789062 C 39.957031 66.859375 39.703125 66.898438 39.449219 66.898438 C 39.410156 66.902344 39.375 66.902344 39.335938 66.902344 C 38.878906 66.902344 38.429688 66.773438 38.039062 66.527344 C 37.503906 66.097656 37.050781 65.578125 36.699219 64.988281 Z M 28.386719 64.527344 C 27.953125 64.527344 27.53125 64.671875 27.183594 64.929688 C 26.046875 65.785156 24.804688 66.484375 23.484375 67.011719 C 21.851562 67.6875 20.3125 68.542969 18.898438 69.570312 C 18.847656 69.609375 18.792969 69.65625 18.742188 69.699219 C 17.707031 70.628906 17.097656 71.957031 17.074219 73.347656 C 17.074219 73.511719 17.09375 73.675781 17.128906 73.835938 C 17.351562 74.785156 18.023438 75.570312 18.929688 75.933594 C 18.96875 75.949219 19.007812 75.964844 19.042969 75.976562 C 19.273438 76.054688 19.511719 76.148438 19.742188 76.242188 C 22.328125 77.339844 24.8125 78.542969 27.109375 79.816406 C 27.316406 79.96875 27.515625 80.140625 27.699219 80.320312 C 27.871094 80.488281 28.074219 80.625 28.292969 80.722656 C 28.730469 80.914062 29.195312 81.011719 29.667969 81.011719 C 30.621094 81.011719 31.527344 80.691406 32.25 80.113281 C 33.15625 79.4375 33.644531 78.347656 33.558594 77.230469 C 33.539062 76.121094 32.863281 75.121094 31.828125 74.691406 L 27.710938 72.878906 C 27.332031 72.71875 26.953125 72.546875 26.578125 72.375 C 26.722656 72.3125 26.867188 72.261719 27.015625 72.214844 C 28.664062 71.683594 30.148438 70.839844 31.441406 69.699219 C 31.460938 69.679688 31.484375 69.664062 31.503906 69.644531 C 32.054688 69.113281 32.363281 68.375 32.355469 67.613281 C 32.335938 66.671875 31.910156 65.828125 31.1875 65.273438 C 30.566406 64.792969 29.785156 64.53125 28.996094 64.53125 C 28.984375 64.53125 28.941406 64.527344 28.929688 64.53125 Z M 68.496094 66.414062 C 68.570312 66.414062 68.644531 66.417969 68.71875 66.429688 C 69.253906 66.460938 69.78125 66.589844 70.269531 66.8125 L 71.660156 67.414062 C 73.65625 68.027344 75.496094 69.074219 77.046875 70.472656 C 77.316406 70.640625 77.488281 70.925781 77.507812 71.242188 C 77.507812 71.710938 77.160156 72.167969 76.4375 72.609375 C 75.144531 73.476562 73.898438 74.40625 72.699219 75.402344 C 71.519531 76.367188 70.277344 77.257812 68.988281 78.070312 C 68.820312 78.160156 68.636719 78.207031 68.449219 78.210938 L 68.433594 78.210938 C 68.175781 78.210938 67.925781 78.109375 67.738281 77.929688 C 67.371094 77.609375 67.332031 77.054688 67.652344 76.6875 C 67.660156 76.675781 67.671875 76.667969 67.679688 76.660156 C 68.082031 76.140625 68.609375 75.730469 69.207031 75.460938 C 69.914062 75.074219 70.585938 74.621094 71.207031 74.109375 C 72.207031 73.347656 72.808594 72.839844 73.207031 72.609375 C 74 72.210938 74.410156 71.929688 74.410156 71.761719 C 74.417969 71.722656 74.417969 71.6875 74.410156 71.652344 C 73.914062 70.839844 73.148438 70.230469 72.246094 69.929688 C 71.359375 69.679688 70.449219 69.410156 69.539062 69.132812 C 68.628906 68.902344 67.800781 68.421875 67.160156 67.742188 C 67.136719 67.679688 67.136719 67.613281 67.160156 67.550781 C 67.191406 67.265625 67.332031 67.003906 67.550781 66.820312 C 67.730469 66.597656 67.992188 66.457031 68.28125 66.429688 C 68.351562 66.417969 68.425781 66.414062 68.5 66.414062 Z M 71.664062 67.414062 C 71.632812 67.40625 71.605469 67.398438 71.578125 67.390625 L 71.71875 67.441406 Z M 28.390625 66.527344 L 28.996094 66.527344 C 29.347656 66.527344 29.691406 66.644531 29.96875 66.859375 C 30.207031 67.042969 30.351562 67.328125 30.359375 67.628906 C 30.363281 67.847656 30.273438 68.050781 30.121094 68.199219 C 29.042969 69.148438 27.777344 69.871094 26.410156 70.308594 C 25.03125 70.75 23.8125 71.582031 22.910156 72.710938 C 24.199219 73.460938 25.535156 74.128906 26.910156 74.710938 L 31.050781 76.527344 C 31.371094 76.65625 31.574219 76.976562 31.558594 77.320312 C 31.617188 77.789062 31.414062 78.253906 31.03125 78.527344 C 30.65625 78.839844 30.183594 79.007812 29.695312 79.007812 L 29.671875 79.007812 C 29.476562 79.007812 29.28125 78.96875 29.101562 78.890625 C 28.820312 78.617188 28.515625 78.363281 28.199219 78.128906 C 25.800781 76.796875 23.230469 75.550781 20.5 74.390625 C 20.226562 74.28125 19.949219 74.171875 19.679688 74.078125 C 19.378906 73.957031 19.152344 73.699219 19.078125 73.378906 C 19.089844 72.542969 19.453125 71.746094 20.078125 71.1875 C 21.363281 70.253906 22.757812 69.476562 24.230469 68.867188 C 25.710938 68.273438 27.109375 67.488281 28.390625 66.527344 Z M 57.222656 67.359375 C 55.945312 67.359375 54.726562 67.832031 53.785156 68.695312 L 53.730469 68.746094 C 52.589844 69.875 52.101562 71.46875 52.410156 73.039062 C 52.558594 74.25 53.042969 75.382812 53.820312 76.332031 C 54.664062 77.433594 55.996094 78.089844 57.386719 78.089844 C 58.265625 78.078125 59.105469 77.847656 59.847656 77.429688 C 59.90625 77.394531 59.964844 77.355469 60.019531 77.316406 C 61.578125 76.203125 62.410156 74.339844 62.203125 72.441406 C 62.113281 70.433594 61.507812 69.066406 60.351562 68.261719 C 59.457031 67.660156 58.453125 67.359375 57.417969 67.359375 L 57.347656 67.359375 C 57.304688 67.359375 57.265625 67.359375 57.222656 67.359375 Z M 57.222656 69.359375 C 57.257812 69.359375 57.292969 69.359375 57.328125 69.359375 C 57.359375 69.359375 57.390625 69.359375 57.421875 69.359375 C 58.054688 69.359375 58.679688 69.546875 59.210938 69.902344 C 59.839844 70.339844 60.160156 71.25 60.210938 72.601562 C 60.359375 73.800781 59.84375 74.988281 58.859375 75.691406 C 58.410156 75.945312 57.90625 76.082031 57.390625 76.089844 C 56.601562 76.089844 55.859375 75.71875 55.390625 75.089844 C 54.828125 74.414062 54.480469 73.589844 54.390625 72.722656 C 54.183594 71.796875 54.464844 70.835938 55.140625 70.171875 C 55.707031 69.648438 56.453125 69.359375 57.222656 69.359375 Z M 41.691406 69.425781 C 41.730469 69.425781 41.769531 69.429688 41.808594 69.429688 C 41.84375 69.429688 41.878906 69.425781 41.914062 69.425781 C 42.542969 69.425781 43.160156 69.613281 43.691406 69.960938 C 44.421875 70.65625 44.785156 71.65625 44.671875 72.660156 C 44.671875 74.191406 44.226562 75.210938 43.328125 75.75 C 42.878906 76.003906 42.375 76.140625 41.859375 76.148438 L 41.855469 76.148438 C 41.070312 76.148438 40.328125 75.78125 39.859375 75.148438 C 39.304688 74.472656 38.957031 73.648438 38.859375 72.777344 C 38.65625 71.855469 38.945312 70.894531 39.621094 70.230469 C 40.1875 69.714844 40.925781 69.425781 41.691406 69.425781 Z M 41.769531 71.578125 C 41.21875 71.578125 40.769531 72.027344 40.769531 72.578125 C 40.769531 73.132812 41.21875 73.578125 41.769531 73.578125 C 42.320312 73.578125 42.769531 73.132812 42.769531 72.578125 C 42.769531 72.027344 42.320312 71.578125 41.769531 71.578125 Z M 57.011719 71.691406 C 56.457031 71.691406 56.011719 72.136719 56.011719 72.691406 C 56.011719 73.242188 56.457031 73.691406 57.011719 73.691406 C 57.5625 73.691406 58.011719 73.242188 58.011719 72.691406 C 58.011719 72.136719 57.5625 71.691406 57.011719 71.691406 Z M 47.320312 76.707031 C 46.785156 76.707031 46.273438 76.921875 45.894531 77.304688 C 45.667969 77.535156 45.492188 77.8125 45.386719 78.109375 C 45.308594 78.328125 45.269531 78.558594 45.269531 78.785156 L 45.269531 78.867188 C 45.269531 79.097656 45.308594 79.324219 45.386719 79.539062 C 45.515625 79.894531 45.675781 80.242188 45.851562 80.578125 C 45.597656 80.554688 45.339844 80.535156 45.074219 80.535156 C 44.90625 80.535156 44.734375 80.542969 44.558594 80.550781 C 42.78125 80.644531 41.351562 81.414062 40.089844 82.09375 C 39.03125 82.664062 38.117188 83.160156 37.203125 83.160156 C 36.292969 83.160156 35.265625 82.660156 34.054688 81.632812 C 33.691406 81.320312 33.230469 81.15625 32.761719 81.15625 C 32.53125 81.15625 32.296875 81.199219 32.074219 81.277344 C 31.398438 81.527344 30.90625 82.117188 30.785156 82.828125 C 30.167969 86.539062 31.375 88.898438 32.496094 90.222656 C 34.203125 92.234375 37.007812 93.390625 40.195312 93.390625 C 43.261719 93.390625 46.28125 92.320312 48.265625 90.53125 C 48.78125 90.070312 49.246094 89.527344 49.632812 88.933594 C 50.015625 89.496094 50.488281 90.039062 51.046875 90.539062 C 53.03125 92.320312 56.050781 93.390625 59.113281 93.390625 C 62.300781 93.390625 65.109375 92.234375 66.8125 90.222656 C 67.933594 88.898438 69.144531 86.539062 68.523438 82.824219 C 68.402344 82.121094 67.914062 81.527344 67.234375 81.28125 C 67.011719 81.199219 66.78125 81.160156 66.546875 81.160156 C 66.082031 81.160156 65.621094 81.324219 65.253906 81.636719 C 64.046875 82.664062 63.015625 83.160156 62.105469 83.160156 C 61.195312 83.160156 60.277344 82.667969 59.21875 82.097656 C 58.003906 81.441406 56.625 80.707031 54.925781 80.570312 C 54.964844 80.496094 55.011719 80.425781 55.046875 80.347656 C 55.164062 80.097656 55.257812 79.835938 55.328125 79.566406 C 55.375 79.398438 55.398438 79.226562 55.398438 79.046875 L 55.398438 78.957031 C 55.398438 78.601562 55.304688 78.25 55.121094 77.941406 C 54.8125 77.347656 54.222656 76.945312 53.542969 76.878906 C 53.480469 76.871094 53.414062 76.867188 53.347656 76.867188 C 52.675781 76.867188 52.042969 77.207031 51.671875 77.777344 C 51.53125 77.996094 51.355469 78.1875 51.152344 78.34375 C 51.105469 78.382812 51.0625 78.421875 51.015625 78.460938 C 50.933594 78.542969 50.832031 78.601562 50.722656 78.640625 C 50.582031 78.691406 50.421875 78.714844 50.257812 78.714844 L 50.179688 78.714844 C 50.039062 78.714844 49.917969 78.699219 49.800781 78.660156 C 49.769531 78.652344 49.722656 78.628906 49.675781 78.59375 C 49.574219 78.511719 49.480469 78.414062 49.398438 78.308594 C 49.308594 78.1875 49.207031 78.019531 49.121094 77.84375 C 48.839844 77.253906 48.289062 76.839844 47.644531 76.734375 C 47.539062 76.714844 47.425781 76.707031 47.316406 76.707031 Z M 47.320312 78.710938 C 47.457031 79.003906 47.625 79.277344 47.820312 79.539062 C 48.003906 79.777344 48.214844 79.992188 48.449219 80.179688 C 48.679688 80.355469 48.941406 80.492188 49.21875 80.578125 C 49.523438 80.671875 49.84375 80.722656 50.164062 80.722656 L 50.257812 80.722656 C 50.644531 80.722656 51.023438 80.65625 51.390625 80.53125 C 51.761719 80.398438 52.101562 80.191406 52.390625 79.921875 C 52.765625 79.625 53.089844 79.269531 53.351562 78.871094 C 53.363281 78.902344 53.378906 78.933594 53.398438 78.960938 L 53.398438 79.050781 C 53.355469 79.207031 53.300781 79.363281 53.230469 79.511719 C 53.136719 79.714844 53.03125 79.914062 52.910156 80.101562 C 52.78125 80.316406 52.632812 80.515625 52.46875 80.703125 C 52.292969 80.894531 52.101562 81.078125 51.898438 81.242188 C 51.683594 81.394531 51.445312 81.523438 51.199219 81.621094 C 50.945312 81.71875 50.671875 81.773438 50.398438 81.773438 L 50.386719 81.773438 L 50.347656 81.730469 C 50.003906 81.71875 49.667969 81.644531 49.347656 81.511719 C 49.027344 81.355469 48.734375 81.140625 48.488281 80.882812 C 48.210938 80.613281 47.976562 80.304688 47.789062 79.972656 C 47.578125 79.621094 47.40625 79.253906 47.269531 78.871094 L 47.269531 78.789062 C 47.28125 78.757812 47.296875 78.734375 47.316406 78.710938 Z M 45.074219 82.539062 C 47 82.539062 48.183594 83.347656 48.613281 84.480469 C 48.46875 85.160156 48.476562 85.863281 48.621094 86.566406 C 48.355469 87.40625 47.804688 88.269531 46.929688 89.050781 C 45.25 90.558594 42.6875 91.390625 40.195312 91.390625 C 35.894531 91.390625 31.796875 88.917969 32.761719 83.160156 C 34.511719 84.644531 35.9375 85.160156 37.203125 85.160156 C 39.964844 85.160156 41.925781 82.695312 44.671875 82.550781 C 44.808594 82.542969 44.941406 82.539062 45.074219 82.539062 Z M 54.234375 82.539062 C 54.367188 82.539062 54.5 82.542969 54.640625 82.550781 C 57.382812 82.695312 59.34375 85.160156 62.109375 85.160156 C 63.371094 85.160156 64.800781 84.644531 66.550781 83.160156 C 67.511719 88.917969 63.410156 91.394531 59.113281 91.394531 C 56.621094 91.394531 54.058594 90.558594 52.378906 89.050781 C 49.316406 86.316406 50.058594 82.539062 54.234375 82.539062 Z M 54.234375 82.539062 "/>
</g>
</svg>
