<svg id="visual" viewBox="0 0 900 600" width="900" height="600" xmlns="http://www.w3.org/2000/svg" xmlns:xlink="http://www.w3.org/1999/xlink" version="1.1"><path d="M0 79L13.7 81C27.3 83 54.7 87 82 84C109.3 81 136.7 71 163.8 68C191 65 218 69 245.2 67C272.3 65 299.7 57 327 58C354.3 59 381.7 69 409 77C436.3 85 463.7 91 491 85C518.3 79 545.7 61 573 59C600.3 57 627.7 71 654.8 79C682 87 709 89 736.2 92C763.3 95 790.7 99 818 90C845.3 81 872.7 59 886.3 48L900 37L900 0L886.3 0C872.7 0 845.3 0 818 0C790.7 0 763.3 0 736.2 0C709 0 682 0 654.8 0C627.7 0 600.3 0 573 0C545.7 0 518.3 0 491 0C463.7 0 436.3 0 409 0C381.7 0 354.3 0 327 0C299.7 0 272.3 0 245.2 0C218 0 191 0 163.8 0C136.7 0 109.3 0 82 0C54.7 0 27.3 0 13.7 0L0 0Z" fill="#e9edf4"></path><path d="M0 205L13.7 230C27.3 255 54.7 305 82 299C109.3 293 136.7 231 163.8 204C191 177 218 185 245.2 190C272.3 195 299.7 197 327 207C354.3 217 381.7 235 409 263C436.3 291 463.7 329 491 338C518.3 347 545.7 327 573 299C600.3 271 627.7 235 654.8 218C682 201 709 203 736.2 201C763.3 199 790.7 193 818 200C845.3 207 872.7 227 886.3 237L900 247L900 35L886.3 46C872.7 57 845.3 79 818 88C790.7 97 763.3 93 736.2 90C709 87 682 85 654.8 77C627.7 69 600.3 55 573 57C545.7 59 518.3 77 491 83C463.7 89 436.3 83 409 75C381.7 67 354.3 57 327 56C299.7 55 272.3 63 245.2 65C218 67 191 63 163.8 66C136.7 69 109.3 79 82 82C54.7 85 27.3 81 13.7 79L0 77Z" fill="#e4e8f1"></path><path d="M0 313L13.7 329C27.3 345 54.7 377 82 365C109.3 353 136.7 297 163.8 284C191 271 218 301 245.2 309C272.3 317 299.7 303 327 311C354.3 319 381.7 349 409 373C436.3 397 463.7 415 491 420C518.3 425 545.7 417 573 391C600.3 365 627.7 321 654.8 300C682 279 709 281 736.2 287C763.3 293 790.7 303 818 319C845.3 335 872.7 357 886.3 368L900 379L900 245L886.3 235C872.7 225 845.3 205 818 198C790.7 191 763.3 197 736.2 199C709 201 682 199 654.8 216C627.7 233 600.3 269 573 297C545.7 325 518.3 345 491 336C463.7 327 436.3 289 409 261C381.7 233 354.3 215 327 205C299.7 195 272.3 193 245.2 188C218 183 191 175 163.8 202C136.7 229 109.3 291 82 297C54.7 303 27.3 253 13.7 228L0 203Z" fill="#dee4ee"></path><path d="M0 517L13.7 523C27.3 529 54.7 541 82 535C109.3 529 136.7 505 163.8 504C191 503 218 525 245.2 530C272.3 535 299.7 523 327 518C354.3 513 381.7 515 409 519C436.3 523 463.7 529 491 536C518.3 543 545.7 551 573 542C600.3 533 627.7 507 654.8 502C682 497 709 513 736.2 518C763.3 523 790.7 517 818 508C845.3 499 872.7 487 886.3 481L900 475L900 377L886.3 366C872.7 355 845.3 333 818 317C790.7 301 763.3 291 736.2 285C709 279 682 277 654.8 298C627.7 319 600.3 363 573 389C545.7 415 518.3 423 491 418C463.7 413 436.3 395 409 371C381.7 347 354.3 317 327 309C299.7 301 272.3 315 245.2 307C218 299 191 269 163.8 282C136.7 295 109.3 351 82 363C54.7 375 27.3 343 13.7 327L0 311Z" fill="#d3dbe9"></path><path d="M0 601L13.7 601C27.3 601 54.7 601 82 601C109.3 601 136.7 601 163.8 601C191 601 218 601 245.2 601C272.3 601 299.7 601 327 601C354.3 601 381.7 601 409 601C436.3 601 463.7 601 491 601C518.3 601 545.7 601 573 601C600.3 601 627.7 601 654.8 601C682 601 709 601 736.2 601C763.3 601 790.7 601 818 601C845.3 601 872.7 601 886.3 601L900 601L900 473L886.3 479C872.7 485 845.3 497 818 506C790.7 515 763.3 521 736.2 516C709 511 682 495 654.8 500C627.7 505 600.3 531 573 540C545.7 549 518.3 541 491 534C463.7 527 436.3 521 409 517C381.7 513 354.3 511 327 516C299.7 521 272.3 533 245.2 528C218 523 191 501 163.8 502C136.7 503 109.3 527 82 533C54.7 539 27.3 527 13.7 521L0 515Z" fill="#c9d3e4"></path></svg>